<mxfile host="app.diagrams.net" agent="Mozilla/5.0 (Windows NT 10.0; Win64; x64) AppleWebKit/537.36 (KHTML, like Gecko) Chrome/131.0.0.0 Safari/537.36" version="24.9.3">
  <diagram name="Page-1" id="y3YGpMEH4TSi8xzuLCbJ">
    <mxGraphModel dx="1195" dy="655" grid="0" gridSize="10" guides="1" tooltips="1" connect="1" arrows="1" fold="1" page="1" pageScale="1" pageWidth="850" pageHeight="1100" math="0" shadow="0">
      <root>
        <mxCell id="0" />
        <mxCell id="1" parent="0" />
        <mxCell id="vGpY6qJDcpEmNuUcfw4i-12" style="edgeStyle=orthogonalEdgeStyle;rounded=0;orthogonalLoop=1;jettySize=auto;html=1;entryX=0;entryY=0.5;entryDx=0;entryDy=0;" edge="1" parent="1" source="vGpY6qJDcpEmNuUcfw4i-1" target="vGpY6qJDcpEmNuUcfw4i-2">
          <mxGeometry relative="1" as="geometry" />
        </mxCell>
        <mxCell id="vGpY6qJDcpEmNuUcfw4i-1" value="Initialization" style="rounded=1;whiteSpace=wrap;html=1;fillColor=#f5f5f5;fontColor=#333333;strokeColor=#666666;" vertex="1" parent="1">
          <mxGeometry y="210" width="80" height="20" as="geometry" />
        </mxCell>
        <mxCell id="vGpY6qJDcpEmNuUcfw4i-13" style="edgeStyle=orthogonalEdgeStyle;rounded=0;orthogonalLoop=1;jettySize=auto;html=1;entryX=0;entryY=0.5;entryDx=0;entryDy=0;" edge="1" parent="1" source="vGpY6qJDcpEmNuUcfw4i-2" target="vGpY6qJDcpEmNuUcfw4i-11">
          <mxGeometry relative="1" as="geometry" />
        </mxCell>
        <mxCell id="vGpY6qJDcpEmNuUcfw4i-22" value="Trajectory point(s)" style="edgeLabel;html=1;align=center;verticalAlign=middle;resizable=0;points=[];" vertex="1" connectable="0" parent="vGpY6qJDcpEmNuUcfw4i-13">
          <mxGeometry x="-0.1429" y="3" relative="1" as="geometry">
            <mxPoint as="offset" />
          </mxGeometry>
        </mxCell>
        <mxCell id="vGpY6qJDcpEmNuUcfw4i-2" value="Trajectory/Point Generator&lt;div&gt;planner.py&lt;/div&gt;" style="rounded=1;whiteSpace=wrap;html=1;fillColor=#f5f5f5;fontColor=#333333;strokeColor=#666666;" vertex="1" parent="1">
          <mxGeometry x="130" y="190" width="250" height="60" as="geometry" />
        </mxCell>
        <mxCell id="vGpY6qJDcpEmNuUcfw4i-3" value="Probabilistic Road Map&lt;div&gt;probabilistic_road_&lt;/div&gt;&lt;div&gt;map.py&lt;/div&gt;" style="rounded=1;whiteSpace=wrap;html=1;fillColor=#f5f5f5;fontColor=#333333;strokeColor=#666666;" vertex="1" parent="1">
          <mxGeometry x="260" y="330" width="120" height="60" as="geometry" />
        </mxCell>
        <mxCell id="vGpY6qJDcpEmNuUcfw4i-15" style="edgeStyle=orthogonalEdgeStyle;rounded=0;orthogonalLoop=1;jettySize=auto;html=1;entryX=0.5;entryY=0;entryDx=0;entryDy=0;" edge="1" parent="1" source="vGpY6qJDcpEmNuUcfw4i-5" target="vGpY6qJDcpEmNuUcfw4i-6">
          <mxGeometry relative="1" as="geometry">
            <Array as="points">
              <mxPoint x="775" y="110" />
            </Array>
          </mxGeometry>
        </mxCell>
        <mxCell id="vGpY6qJDcpEmNuUcfw4i-31" value="/odom" style="edgeLabel;html=1;align=center;verticalAlign=middle;resizable=0;points=[];" vertex="1" connectable="0" parent="vGpY6qJDcpEmNuUcfw4i-15">
          <mxGeometry x="0.2593" y="-1" relative="1" as="geometry">
            <mxPoint as="offset" />
          </mxGeometry>
        </mxCell>
        <mxCell id="vGpY6qJDcpEmNuUcfw4i-5" value="TurtleBot Node" style="rounded=1;whiteSpace=wrap;html=1;fillColor=#e1d5e7;strokeColor=#9673a6;" vertex="1" parent="1">
          <mxGeometry x="605" y="80" width="120" height="60" as="geometry" />
        </mxCell>
        <mxCell id="vGpY6qJDcpEmNuUcfw4i-25" style="edgeStyle=orthogonalEdgeStyle;rounded=0;orthogonalLoop=1;jettySize=auto;html=1;entryX=1;entryY=0.5;entryDx=0;entryDy=0;" edge="1" parent="1">
          <mxGeometry relative="1" as="geometry">
            <mxPoint x="715.0000000000002" y="230" as="sourcePoint" />
            <mxPoint x="620" y="230" as="targetPoint" />
          </mxGeometry>
        </mxCell>
        <mxCell id="vGpY6qJDcpEmNuUcfw4i-26" value="Request" style="edgeLabel;html=1;align=center;verticalAlign=middle;resizable=0;points=[];" vertex="1" connectable="0" parent="vGpY6qJDcpEmNuUcfw4i-25">
          <mxGeometry x="0.274" y="-1" relative="1" as="geometry">
            <mxPoint x="10" y="1" as="offset" />
          </mxGeometry>
        </mxCell>
        <mxCell id="vGpY6qJDcpEmNuUcfw4i-43" style="edgeStyle=orthogonalEdgeStyle;rounded=0;orthogonalLoop=1;jettySize=auto;html=1;entryX=-0.013;entryY=0.333;entryDx=0;entryDy=0;entryPerimeter=0;" edge="1" parent="1" target="vGpY6qJDcpEmNuUcfw4i-41">
          <mxGeometry relative="1" as="geometry">
            <mxPoint x="835.0000000000002" y="210" as="sourcePoint" />
            <mxPoint x="900" y="210" as="targetPoint" />
          </mxGeometry>
        </mxCell>
        <mxCell id="vGpY6qJDcpEmNuUcfw4i-44" value="odom,&lt;div&gt;imu readings&lt;/div&gt;" style="edgeLabel;html=1;align=center;verticalAlign=middle;resizable=0;points=[];" vertex="1" connectable="0" parent="vGpY6qJDcpEmNuUcfw4i-43">
          <mxGeometry x="-0.2062" relative="1" as="geometry">
            <mxPoint x="14" y="-10" as="offset" />
          </mxGeometry>
        </mxCell>
        <mxCell id="vGpY6qJDcpEmNuUcfw4i-6" value="Localizer Node&lt;br&gt;localization.py" style="rounded=1;whiteSpace=wrap;html=1;fillColor=#e1d5e7;strokeColor=#9673a6;" vertex="1" parent="1">
          <mxGeometry x="715" y="190" width="120" height="60" as="geometry" />
        </mxCell>
        <mxCell id="vGpY6qJDcpEmNuUcfw4i-16" style="edgeStyle=orthogonalEdgeStyle;rounded=0;orthogonalLoop=1;jettySize=auto;html=1;entryX=0.5;entryY=1;entryDx=0;entryDy=0;startArrow=classic;startFill=1;" edge="1" parent="1" source="vGpY6qJDcpEmNuUcfw4i-7" target="vGpY6qJDcpEmNuUcfw4i-6">
          <mxGeometry relative="1" as="geometry">
            <mxPoint x="775" y="270" as="targetPoint" />
          </mxGeometry>
        </mxCell>
        <mxCell id="vGpY6qJDcpEmNuUcfw4i-7" value="Utility Functions" style="rounded=1;whiteSpace=wrap;html=1;fillColor=#f5f5f5;fontColor=#333333;strokeColor=#666666;" vertex="1" parent="1">
          <mxGeometry x="715" y="300" width="120" height="60" as="geometry" />
        </mxCell>
        <mxCell id="vGpY6qJDcpEmNuUcfw4i-8" value="PID functions&lt;div&gt;pid.py&lt;/div&gt;" style="rounded=1;whiteSpace=wrap;html=1;fillColor=#f5f5f5;fontColor=#333333;strokeColor=#666666;" vertex="1" parent="1">
          <mxGeometry x="500" y="390" width="120" height="60" as="geometry" />
        </mxCell>
        <mxCell id="vGpY6qJDcpEmNuUcfw4i-27" style="edgeStyle=orthogonalEdgeStyle;rounded=0;orthogonalLoop=1;jettySize=auto;html=1;entryX=0.665;entryY=1.007;entryDx=0;entryDy=0;entryPerimeter=0;" edge="1" parent="1" target="vGpY6qJDcpEmNuUcfw4i-11">
          <mxGeometry relative="1" as="geometry">
            <mxPoint x="580" y="300" as="sourcePoint" />
            <mxPoint x="580" y="270" as="targetPoint" />
          </mxGeometry>
        </mxCell>
        <mxCell id="vGpY6qJDcpEmNuUcfw4i-29" value="Velocity Command" style="edgeLabel;html=1;align=center;verticalAlign=middle;resizable=0;points=[];" vertex="1" connectable="0" parent="vGpY6qJDcpEmNuUcfw4i-27">
          <mxGeometry x="-0.0926" y="-1" relative="1" as="geometry">
            <mxPoint x="49" as="offset" />
          </mxGeometry>
        </mxCell>
        <mxCell id="vGpY6qJDcpEmNuUcfw4i-9" value="Controller Node&lt;div&gt;controller.py&lt;/div&gt;" style="rounded=1;whiteSpace=wrap;html=1;fillColor=#e1d5e7;strokeColor=#9673a6;" vertex="1" parent="1">
          <mxGeometry x="500" y="300" width="120" height="60" as="geometry" />
        </mxCell>
        <mxCell id="vGpY6qJDcpEmNuUcfw4i-10" value="&lt;div&gt;A* Algorithm&lt;/div&gt;&lt;div&gt;a_star.py&lt;/div&gt;" style="rounded=1;whiteSpace=wrap;html=1;fillColor=#f5f5f5;fontColor=#333333;strokeColor=#666666;" vertex="1" parent="1">
          <mxGeometry x="130" y="330" width="120" height="60" as="geometry" />
        </mxCell>
        <mxCell id="vGpY6qJDcpEmNuUcfw4i-14" style="edgeStyle=orthogonalEdgeStyle;rounded=0;orthogonalLoop=1;jettySize=auto;html=1;entryX=0;entryY=0.5;entryDx=0;entryDy=0;" edge="1" parent="1" source="vGpY6qJDcpEmNuUcfw4i-11" target="vGpY6qJDcpEmNuUcfw4i-5">
          <mxGeometry relative="1" as="geometry" />
        </mxCell>
        <mxCell id="vGpY6qJDcpEmNuUcfw4i-32" value="/cmd_vel" style="edgeLabel;html=1;align=center;verticalAlign=middle;resizable=0;points=[];" vertex="1" connectable="0" parent="vGpY6qJDcpEmNuUcfw4i-14">
          <mxGeometry x="-0.3897" y="1" relative="1" as="geometry">
            <mxPoint as="offset" />
          </mxGeometry>
        </mxCell>
        <mxCell id="vGpY6qJDcpEmNuUcfw4i-23" style="edgeStyle=orthogonalEdgeStyle;rounded=0;orthogonalLoop=1;jettySize=auto;html=1;entryX=0;entryY=0.5;entryDx=0;entryDy=0;" edge="1" parent="1">
          <mxGeometry relative="1" as="geometry">
            <mxPoint x="620" y="210" as="sourcePoint" />
            <mxPoint x="715" y="210" as="targetPoint" />
          </mxGeometry>
        </mxCell>
        <mxCell id="vGpY6qJDcpEmNuUcfw4i-24" value="Current Pose" style="edgeLabel;html=1;align=center;verticalAlign=middle;resizable=0;points=[];" vertex="1" connectable="0" parent="vGpY6qJDcpEmNuUcfw4i-23">
          <mxGeometry x="0.2301" relative="1" as="geometry">
            <mxPoint x="-13" as="offset" />
          </mxGeometry>
        </mxCell>
        <mxCell id="vGpY6qJDcpEmNuUcfw4i-11" value="Decision Maker Node&lt;div&gt;decisions.py&lt;/div&gt;" style="rounded=1;whiteSpace=wrap;html=1;fillColor=#e1d5e7;strokeColor=#9673a6;" vertex="1" parent="1">
          <mxGeometry x="500" y="190" width="120" height="60" as="geometry" />
        </mxCell>
        <mxCell id="vGpY6qJDcpEmNuUcfw4i-17" style="edgeStyle=orthogonalEdgeStyle;rounded=0;orthogonalLoop=1;jettySize=auto;html=1;entryX=-0.014;entryY=0.496;entryDx=0;entryDy=0;entryPerimeter=0;startArrow=classic;startFill=1;" edge="1" parent="1" source="vGpY6qJDcpEmNuUcfw4i-9" target="vGpY6qJDcpEmNuUcfw4i-7">
          <mxGeometry relative="1" as="geometry" />
        </mxCell>
        <mxCell id="vGpY6qJDcpEmNuUcfw4i-18" style="edgeStyle=orthogonalEdgeStyle;rounded=0;orthogonalLoop=1;jettySize=auto;html=1;entryX=0.5;entryY=1.033;entryDx=0;entryDy=0;entryPerimeter=0;startArrow=classic;startFill=1;" edge="1" parent="1" source="vGpY6qJDcpEmNuUcfw4i-8" target="vGpY6qJDcpEmNuUcfw4i-9">
          <mxGeometry relative="1" as="geometry" />
        </mxCell>
        <mxCell id="vGpY6qJDcpEmNuUcfw4i-28" style="edgeStyle=orthogonalEdgeStyle;rounded=0;orthogonalLoop=1;jettySize=auto;html=1;entryX=0.337;entryY=1.008;entryDx=0;entryDy=0;entryPerimeter=0;" edge="1" parent="1" target="vGpY6qJDcpEmNuUcfw4i-11">
          <mxGeometry relative="1" as="geometry">
            <mxPoint x="540" y="300" as="sourcePoint" />
            <mxPoint x="540" y="270" as="targetPoint" />
          </mxGeometry>
        </mxCell>
        <mxCell id="vGpY6qJDcpEmNuUcfw4i-30" value="Next desired pose&lt;div&gt;and current pose&lt;/div&gt;" style="edgeLabel;html=1;align=center;verticalAlign=middle;resizable=0;points=[];" vertex="1" connectable="0" parent="vGpY6qJDcpEmNuUcfw4i-28">
          <mxGeometry x="-0.3148" relative="1" as="geometry">
            <mxPoint x="-50" y="-3" as="offset" />
          </mxGeometry>
        </mxCell>
        <mxCell id="vGpY6qJDcpEmNuUcfw4i-33" style="edgeStyle=orthogonalEdgeStyle;rounded=0;orthogonalLoop=1;jettySize=auto;html=1;entryX=0.763;entryY=1.015;entryDx=0;entryDy=0;entryPerimeter=0;" edge="1" parent="1">
          <mxGeometry relative="1" as="geometry">
            <mxPoint x="290" y="330" as="sourcePoint" />
            <mxPoint x="290.75" y="250.9000000000001" as="targetPoint" />
          </mxGeometry>
        </mxCell>
        <mxCell id="vGpY6qJDcpEmNuUcfw4i-36" value="sample points,&lt;div&gt;roadmap&lt;/div&gt;" style="edgeLabel;html=1;align=center;verticalAlign=middle;resizable=0;points=[];" vertex="1" connectable="0" parent="vGpY6qJDcpEmNuUcfw4i-33">
          <mxGeometry x="-0.0221" relative="1" as="geometry">
            <mxPoint x="-11" y="-1" as="offset" />
          </mxGeometry>
        </mxCell>
        <mxCell id="vGpY6qJDcpEmNuUcfw4i-34" style="edgeStyle=orthogonalEdgeStyle;rounded=0;orthogonalLoop=1;jettySize=auto;html=1;entryX=0.75;entryY=0;entryDx=0;entryDy=0;exitX=0.878;exitY=1.007;exitDx=0;exitDy=0;exitPerimeter=0;" edge="1" parent="1" source="vGpY6qJDcpEmNuUcfw4i-2" target="vGpY6qJDcpEmNuUcfw4i-3">
          <mxGeometry relative="1" as="geometry">
            <mxPoint x="410" y="339" as="sourcePoint" />
            <mxPoint x="411" y="260" as="targetPoint" />
          </mxGeometry>
        </mxCell>
        <mxCell id="vGpY6qJDcpEmNuUcfw4i-35" value="Start pose,&lt;br&gt;end pose,&lt;br&gt;obstacles" style="edgeLabel;html=1;align=center;verticalAlign=middle;resizable=0;points=[];" vertex="1" connectable="0" parent="vGpY6qJDcpEmNuUcfw4i-34">
          <mxGeometry x="-0.1432" relative="1" as="geometry">
            <mxPoint x="10" as="offset" />
          </mxGeometry>
        </mxCell>
        <mxCell id="vGpY6qJDcpEmNuUcfw4i-37" style="edgeStyle=orthogonalEdgeStyle;rounded=0;orthogonalLoop=1;jettySize=auto;html=1;entryX=0.239;entryY=1.015;entryDx=0;entryDy=0;entryPerimeter=0;" edge="1" parent="1">
          <mxGeometry relative="1" as="geometry">
            <mxPoint x="150.25" y="330" as="sourcePoint" />
            <mxPoint x="150" y="250.9000000000001" as="targetPoint" />
            <Array as="points">
              <mxPoint x="150" y="290" />
              <mxPoint x="150" y="290" />
            </Array>
          </mxGeometry>
        </mxCell>
        <mxCell id="vGpY6qJDcpEmNuUcfw4i-40" value="path" style="edgeLabel;html=1;align=center;verticalAlign=middle;resizable=0;points=[];" vertex="1" connectable="0" parent="vGpY6qJDcpEmNuUcfw4i-37">
          <mxGeometry x="0.0371" y="2" relative="1" as="geometry">
            <mxPoint x="-8" as="offset" />
          </mxGeometry>
        </mxCell>
        <mxCell id="vGpY6qJDcpEmNuUcfw4i-38" style="edgeStyle=orthogonalEdgeStyle;rounded=0;orthogonalLoop=1;jettySize=auto;html=1;" edge="1" parent="1" source="vGpY6qJDcpEmNuUcfw4i-2" target="vGpY6qJDcpEmNuUcfw4i-10">
          <mxGeometry relative="1" as="geometry">
            <Array as="points">
              <mxPoint x="220" y="290" />
              <mxPoint x="220" y="290" />
            </Array>
          </mxGeometry>
        </mxCell>
        <mxCell id="vGpY6qJDcpEmNuUcfw4i-39" value="sample points,&lt;div&gt;roadmap,&lt;/div&gt;&lt;div&gt;start pose,&lt;/div&gt;&lt;div&gt;end pose&lt;/div&gt;" style="edgeLabel;html=1;align=center;verticalAlign=middle;resizable=0;points=[];" vertex="1" connectable="0" parent="vGpY6qJDcpEmNuUcfw4i-38">
          <mxGeometry x="-0.015" relative="1" as="geometry">
            <mxPoint x="-20" as="offset" />
          </mxGeometry>
        </mxCell>
        <mxCell id="vGpY6qJDcpEmNuUcfw4i-45" style="edgeStyle=orthogonalEdgeStyle;rounded=0;orthogonalLoop=1;jettySize=auto;html=1;entryX=1;entryY=0.5;entryDx=0;entryDy=0;" edge="1" parent="1">
          <mxGeometry relative="1" as="geometry">
            <mxPoint x="940" y="240" as="sourcePoint" />
            <mxPoint x="835.0000000000002" y="240" as="targetPoint" />
          </mxGeometry>
        </mxCell>
        <mxCell id="vGpY6qJDcpEmNuUcfw4i-46" value="Estimated state" style="edgeLabel;html=1;align=center;verticalAlign=middle;resizable=0;points=[];" vertex="1" connectable="0" parent="vGpY6qJDcpEmNuUcfw4i-45">
          <mxGeometry x="-0.0586" y="-1" relative="1" as="geometry">
            <mxPoint y="11" as="offset" />
          </mxGeometry>
        </mxCell>
        <mxCell id="vGpY6qJDcpEmNuUcfw4i-41" value="Extended Kalmin Filter&lt;div&gt;kalman_filter.py&lt;/div&gt;" style="rounded=1;whiteSpace=wrap;html=1;fillColor=#f5f5f5;fontColor=#333333;strokeColor=#666666;" vertex="1" parent="1">
          <mxGeometry x="940" y="190" width="120" height="60" as="geometry" />
        </mxCell>
      </root>
    </mxGraphModel>
  </diagram>
</mxfile>
